<mxfile host="app.diagrams.net" modified="2020-12-05T01:57:09.275Z" agent="5.0 (Macintosh; Intel Mac OS X 10_15_6) AppleWebKit/605.1.15 (KHTML, like Gecko) Version/14.0.1 Safari/605.1.15" etag="I1kyBKs-uIVpUH3WVbvn" version="13.10.9" type="github">
  <diagram name="Page-1" id="2a216829-ef6e-dabb-86c1-c78162f3ba2b">
    <mxGraphModel dx="565" dy="391" grid="1" gridSize="10" guides="1" tooltips="1" connect="1" arrows="1" fold="1" page="1" pageScale="1" pageWidth="1100" pageHeight="850" background="#ffffff" math="0" shadow="0">
      <root>
        <mxCell id="0" />
        <mxCell id="1" parent="0" />
        <mxCell id="AWHUf_0FlsuX0KZdPKvo-2" value="Gestão de Queixas e Reclamações" style="swimlane;html=1;childLayout=stackLayout;resizeParent=1;resizeParentMax=0;horizontal=0;startSize=20;horizontalStack=0;" vertex="1" parent="1">
          <mxGeometry x="40" y="30" width="1040" height="760" as="geometry" />
        </mxCell>
        <mxCell id="AWHUf_0FlsuX0KZdPKvo-6" value="Departamento C" style="swimlane;html=1;startSize=20;horizontal=0;" vertex="1" parent="AWHUf_0FlsuX0KZdPKvo-2">
          <mxGeometry x="20" width="1020" height="380" as="geometry" />
        </mxCell>
        <mxCell id="AWHUf_0FlsuX0KZdPKvo-9" style="edgeStyle=none;rounded=0;orthogonalLoop=1;jettySize=auto;html=1;exitX=1;exitY=0.5;exitDx=0;exitDy=0;entryX=0;entryY=0.5;entryDx=0;entryDy=0;" edge="1" parent="AWHUf_0FlsuX0KZdPKvo-6" source="AWHUf_0FlsuX0KZdPKvo-7" target="AWHUf_0FlsuX0KZdPKvo-8">
          <mxGeometry relative="1" as="geometry" />
        </mxCell>
        <mxCell id="AWHUf_0FlsuX0KZdPKvo-7" value="" style="shape=mxgraph.bpmn.shape;html=1;verticalLabelPosition=bottom;labelBackgroundColor=#ffffff;verticalAlign=top;align=center;perimeter=ellipsePerimeter;outlineConnect=0;outline=standard;symbol=general;" vertex="1" parent="AWHUf_0FlsuX0KZdPKvo-6">
          <mxGeometry x="30" y="550" width="30" height="30" as="geometry" />
        </mxCell>
        <mxCell id="AWHUf_0FlsuX0KZdPKvo-25" style="edgeStyle=none;rounded=0;orthogonalLoop=1;jettySize=auto;html=1;exitX=0.5;exitY=0;exitDx=0;exitDy=0;entryX=0.5;entryY=1;entryDx=0;entryDy=0;" edge="1" parent="AWHUf_0FlsuX0KZdPKvo-6" source="AWHUf_0FlsuX0KZdPKvo-8" target="AWHUf_0FlsuX0KZdPKvo-24">
          <mxGeometry relative="1" as="geometry" />
        </mxCell>
        <mxCell id="AWHUf_0FlsuX0KZdPKvo-8" value="Registrar queixas e reclamações" style="shape=ext;rounded=1;html=1;whiteSpace=wrap;" vertex="1" parent="AWHUf_0FlsuX0KZdPKvo-6">
          <mxGeometry x="90" y="525" width="120" height="80" as="geometry" />
        </mxCell>
        <mxCell id="AWHUf_0FlsuX0KZdPKvo-27" style="edgeStyle=none;rounded=0;orthogonalLoop=1;jettySize=auto;html=1;exitX=1;exitY=0.5;exitDx=0;exitDy=0;entryX=0;entryY=0.5;entryDx=0;entryDy=0;" edge="1" parent="AWHUf_0FlsuX0KZdPKvo-6" source="AWHUf_0FlsuX0KZdPKvo-24" target="AWHUf_0FlsuX0KZdPKvo-26">
          <mxGeometry relative="1" as="geometry" />
        </mxCell>
        <mxCell id="AWHUf_0FlsuX0KZdPKvo-24" value="Avaliação de queixas e reclamações" style="shape=ext;rounded=1;html=1;whiteSpace=wrap;" vertex="1" parent="AWHUf_0FlsuX0KZdPKvo-6">
          <mxGeometry x="90" y="140" width="120" height="80" as="geometry" />
        </mxCell>
        <mxCell id="AWHUf_0FlsuX0KZdPKvo-29" style="edgeStyle=none;rounded=0;orthogonalLoop=1;jettySize=auto;html=1;exitX=0.5;exitY=1;exitDx=0;exitDy=0;entryX=0.5;entryY=0;entryDx=0;entryDy=0;" edge="1" parent="AWHUf_0FlsuX0KZdPKvo-6" source="AWHUf_0FlsuX0KZdPKvo-26" target="AWHUf_0FlsuX0KZdPKvo-28">
          <mxGeometry relative="1" as="geometry" />
        </mxCell>
        <mxCell id="AWHUf_0FlsuX0KZdPKvo-31" style="edgeStyle=none;rounded=0;orthogonalLoop=1;jettySize=auto;html=1;exitX=0.5;exitY=0;exitDx=0;exitDy=0;" edge="1" parent="AWHUf_0FlsuX0KZdPKvo-6" source="AWHUf_0FlsuX0KZdPKvo-26" target="AWHUf_0FlsuX0KZdPKvo-30">
          <mxGeometry relative="1" as="geometry" />
        </mxCell>
        <mxCell id="AWHUf_0FlsuX0KZdPKvo-26" value="" style="shape=mxgraph.bpmn.shape;html=1;verticalLabelPosition=bottom;labelBackgroundColor=#ffffff;verticalAlign=top;align=center;perimeter=rhombusPerimeter;background=gateway;outlineConnect=0;outline=standard;symbol=conditional;" vertex="1" parent="AWHUf_0FlsuX0KZdPKvo-6">
          <mxGeometry x="290" y="155" width="50" height="50" as="geometry" />
        </mxCell>
        <mxCell id="AWHUf_0FlsuX0KZdPKvo-35" style="edgeStyle=none;rounded=0;orthogonalLoop=1;jettySize=auto;html=1;exitX=1;exitY=0.5;exitDx=0;exitDy=0;entryX=0;entryY=0.5;entryDx=0;entryDy=0;" edge="1" parent="AWHUf_0FlsuX0KZdPKvo-6" source="AWHUf_0FlsuX0KZdPKvo-28" target="AWHUf_0FlsuX0KZdPKvo-32">
          <mxGeometry relative="1" as="geometry" />
        </mxCell>
        <mxCell id="AWHUf_0FlsuX0KZdPKvo-28" value="Processamento adicional" style="shape=ext;rounded=1;html=1;whiteSpace=wrap;" vertex="1" parent="AWHUf_0FlsuX0KZdPKvo-6">
          <mxGeometry x="255" y="250" width="120" height="80" as="geometry" />
        </mxCell>
        <mxCell id="AWHUf_0FlsuX0KZdPKvo-37" style="edgeStyle=none;rounded=0;orthogonalLoop=1;jettySize=auto;html=1;exitX=1;exitY=0.5;exitDx=0;exitDy=0;entryX=0;entryY=0.5;entryDx=0;entryDy=0;" edge="1" parent="AWHUf_0FlsuX0KZdPKvo-6" source="AWHUf_0FlsuX0KZdPKvo-30" target="AWHUf_0FlsuX0KZdPKvo-36">
          <mxGeometry relative="1" as="geometry" />
        </mxCell>
        <mxCell id="AWHUf_0FlsuX0KZdPKvo-30" value="Queixa ou reclamação arquivada" style="shape=ext;rounded=1;html=1;whiteSpace=wrap;" vertex="1" parent="AWHUf_0FlsuX0KZdPKvo-6">
          <mxGeometry x="256" y="26" width="120" height="80" as="geometry" />
        </mxCell>
        <mxCell id="AWHUf_0FlsuX0KZdPKvo-39" style="edgeStyle=none;rounded=0;orthogonalLoop=1;jettySize=auto;html=1;exitX=1;exitY=0.5;exitDx=0;exitDy=0;" edge="1" parent="AWHUf_0FlsuX0KZdPKvo-6" source="AWHUf_0FlsuX0KZdPKvo-32" target="AWHUf_0FlsuX0KZdPKvo-38">
          <mxGeometry relative="1" as="geometry" />
        </mxCell>
        <mxCell id="AWHUf_0FlsuX0KZdPKvo-32" value="Processar a queixa" style="html=1;whiteSpace=wrap;rounded=1;dropTarget=0;" vertex="1" parent="AWHUf_0FlsuX0KZdPKvo-6">
          <mxGeometry x="430" y="250" width="120" height="80" as="geometry" />
        </mxCell>
        <mxCell id="AWHUf_0FlsuX0KZdPKvo-33" value="" style="html=1;shape=mxgraph.bpmn.loop;outlineConnect=0;" vertex="1" parent="AWHUf_0FlsuX0KZdPKvo-32">
          <mxGeometry x="0.5" y="1" width="14" height="14" relative="1" as="geometry">
            <mxPoint x="-15" y="-14" as="offset" />
          </mxGeometry>
        </mxCell>
        <mxCell id="AWHUf_0FlsuX0KZdPKvo-34" value="" style="html=1;shape=plus;" vertex="1" parent="AWHUf_0FlsuX0KZdPKvo-32">
          <mxGeometry x="0.5" y="1" width="14" height="14" relative="1" as="geometry">
            <mxPoint x="1" y="-14" as="offset" />
          </mxGeometry>
        </mxCell>
        <mxCell id="AWHUf_0FlsuX0KZdPKvo-36" value="" style="shape=mxgraph.bpmn.shape;html=1;verticalLabelPosition=bottom;labelBackgroundColor=#ffffff;verticalAlign=top;align=center;perimeter=ellipsePerimeter;outlineConnect=0;outline=end;symbol=general;" vertex="1" parent="AWHUf_0FlsuX0KZdPKvo-6">
          <mxGeometry x="450" y="50" width="30" height="30" as="geometry" />
        </mxCell>
        <mxCell id="AWHUf_0FlsuX0KZdPKvo-40" style="edgeStyle=none;rounded=0;orthogonalLoop=1;jettySize=auto;html=1;exitX=0.5;exitY=0;exitDx=0;exitDy=0;entryX=0.5;entryY=0;entryDx=0;entryDy=0;" edge="1" parent="AWHUf_0FlsuX0KZdPKvo-6" source="AWHUf_0FlsuX0KZdPKvo-38" target="AWHUf_0FlsuX0KZdPKvo-32">
          <mxGeometry relative="1" as="geometry">
            <Array as="points">
              <mxPoint x="655" y="200" />
              <mxPoint x="490" y="200" />
            </Array>
          </mxGeometry>
        </mxCell>
        <mxCell id="AWHUf_0FlsuX0KZdPKvo-43" style="edgeStyle=none;rounded=0;orthogonalLoop=1;jettySize=auto;html=1;exitX=1;exitY=0.5;exitDx=0;exitDy=0;entryX=0;entryY=0.5;entryDx=0;entryDy=0;" edge="1" parent="AWHUf_0FlsuX0KZdPKvo-6" source="AWHUf_0FlsuX0KZdPKvo-38" target="AWHUf_0FlsuX0KZdPKvo-42">
          <mxGeometry relative="1" as="geometry" />
        </mxCell>
        <mxCell id="AWHUf_0FlsuX0KZdPKvo-38" value="" style="shape=mxgraph.bpmn.shape;html=1;verticalLabelPosition=bottom;labelBackgroundColor=#ffffff;verticalAlign=top;align=center;perimeter=rhombusPerimeter;background=gateway;outlineConnect=0;outline=standard;symbol=conditional;" vertex="1" parent="AWHUf_0FlsuX0KZdPKvo-6">
          <mxGeometry x="630" y="265" width="50" height="50" as="geometry" />
        </mxCell>
        <mxCell id="AWHUf_0FlsuX0KZdPKvo-42" value="Executar &amp;nbsp;ações propostas" style="shape=ext;rounded=1;html=1;whiteSpace=wrap;" vertex="1" parent="AWHUf_0FlsuX0KZdPKvo-6">
          <mxGeometry x="750" y="250" width="120" height="80" as="geometry" />
        </mxCell>
        <mxCell id="AWHUf_0FlsuX0KZdPKvo-5" value="Departamento L" style="swimlane;html=1;startSize=20;horizontal=0;" vertex="1" parent="AWHUf_0FlsuX0KZdPKvo-2">
          <mxGeometry x="20" y="380" width="1020" height="380" as="geometry" />
        </mxCell>
        <mxCell id="AWHUf_0FlsuX0KZdPKvo-13" style="edgeStyle=none;rounded=0;orthogonalLoop=1;jettySize=auto;html=1;exitX=1;exitY=0.5;exitDx=0;exitDy=0;entryX=0;entryY=0.5;entryDx=0;entryDy=0;" edge="1" parent="AWHUf_0FlsuX0KZdPKvo-5" source="AWHUf_0FlsuX0KZdPKvo-10" target="AWHUf_0FlsuX0KZdPKvo-12">
          <mxGeometry relative="1" as="geometry" />
        </mxCell>
        <mxCell id="AWHUf_0FlsuX0KZdPKvo-10" value="Enviar formulário" style="shape=ext;rounded=1;html=1;whiteSpace=wrap;" vertex="1" parent="AWHUf_0FlsuX0KZdPKvo-5">
          <mxGeometry x="90" y="260" width="120" height="80" as="geometry" />
        </mxCell>
        <mxCell id="AWHUf_0FlsuX0KZdPKvo-17" style="edgeStyle=none;rounded=0;orthogonalLoop=1;jettySize=auto;html=1;exitX=0.5;exitY=0;exitDx=0;exitDy=0;" edge="1" parent="AWHUf_0FlsuX0KZdPKvo-5">
          <mxGeometry relative="1" as="geometry">
            <mxPoint x="315" y="275" as="sourcePoint" />
            <mxPoint x="315.55555555555554" y="225" as="targetPoint" />
          </mxGeometry>
        </mxCell>
        <mxCell id="AWHUf_0FlsuX0KZdPKvo-23" style="edgeStyle=none;rounded=0;orthogonalLoop=1;jettySize=auto;html=1;exitX=1;exitY=0.5;exitDx=0;exitDy=0;" edge="1" parent="AWHUf_0FlsuX0KZdPKvo-5" source="AWHUf_0FlsuX0KZdPKvo-12" target="AWHUf_0FlsuX0KZdPKvo-22">
          <mxGeometry relative="1" as="geometry" />
        </mxCell>
        <mxCell id="AWHUf_0FlsuX0KZdPKvo-12" value="" style="shape=mxgraph.bpmn.shape;html=1;verticalLabelPosition=bottom;labelBackgroundColor=#ffffff;verticalAlign=top;align=center;perimeter=rhombusPerimeter;background=gateway;outlineConnect=0;outline=standard;symbol=timer;" vertex="1" parent="AWHUf_0FlsuX0KZdPKvo-5">
          <mxGeometry x="290" y="275" width="50" height="50" as="geometry" />
        </mxCell>
        <mxCell id="AWHUf_0FlsuX0KZdPKvo-19" style="edgeStyle=none;rounded=0;orthogonalLoop=1;jettySize=auto;html=1;exitX=0.5;exitY=0;exitDx=0;exitDy=0;entryX=0.5;entryY=1;entryDx=0;entryDy=0;" edge="1" parent="AWHUf_0FlsuX0KZdPKvo-5" source="AWHUf_0FlsuX0KZdPKvo-15" target="AWHUf_0FlsuX0KZdPKvo-18">
          <mxGeometry relative="1" as="geometry" />
        </mxCell>
        <mxCell id="AWHUf_0FlsuX0KZdPKvo-15" value="Receber formulário&lt;br&gt;preenchido" style="html=1;whiteSpace=wrap;rounded=1;dropTarget=0;" vertex="1" parent="AWHUf_0FlsuX0KZdPKvo-5">
          <mxGeometry x="256" y="145" width="120" height="80" as="geometry" />
        </mxCell>
        <mxCell id="AWHUf_0FlsuX0KZdPKvo-16" value="" style="html=1;shape=message;outlineConnect=0;" vertex="1" parent="AWHUf_0FlsuX0KZdPKvo-15">
          <mxGeometry width="20" height="14" relative="1" as="geometry">
            <mxPoint x="7" y="7" as="offset" />
          </mxGeometry>
        </mxCell>
        <mxCell id="AWHUf_0FlsuX0KZdPKvo-21" style="edgeStyle=none;rounded=0;orthogonalLoop=1;jettySize=auto;html=1;exitX=1;exitY=0.5;exitDx=0;exitDy=0;entryX=0;entryY=0.5;entryDx=0;entryDy=0;" edge="1" parent="AWHUf_0FlsuX0KZdPKvo-5" source="AWHUf_0FlsuX0KZdPKvo-18" target="AWHUf_0FlsuX0KZdPKvo-20">
          <mxGeometry relative="1" as="geometry" />
        </mxCell>
        <mxCell id="AWHUf_0FlsuX0KZdPKvo-18" value="Processar formulário" style="shape=ext;rounded=1;html=1;whiteSpace=wrap;" vertex="1" parent="AWHUf_0FlsuX0KZdPKvo-5">
          <mxGeometry x="256" y="30" width="120" height="80" as="geometry" />
        </mxCell>
        <mxCell id="AWHUf_0FlsuX0KZdPKvo-20" value="Relatório" style="shape=ext;rounded=1;html=1;whiteSpace=wrap;" vertex="1" parent="AWHUf_0FlsuX0KZdPKvo-5">
          <mxGeometry x="430" y="30" width="120" height="80" as="geometry" />
        </mxCell>
        <mxCell id="AWHUf_0FlsuX0KZdPKvo-22" value="" style="shape=mxgraph.bpmn.shape;html=1;verticalLabelPosition=bottom;labelBackgroundColor=#ffffff;verticalAlign=top;align=center;perimeter=ellipsePerimeter;outlineConnect=0;outline=eventInt;symbol=timer;" vertex="1" parent="AWHUf_0FlsuX0KZdPKvo-5">
          <mxGeometry x="380" y="285" width="30" height="30" as="geometry" />
        </mxCell>
        <mxCell id="AWHUf_0FlsuX0KZdPKvo-41" value="Arquivar queixas e reclamações" style="shape=ext;rounded=1;html=1;whiteSpace=wrap;" vertex="1" parent="AWHUf_0FlsuX0KZdPKvo-5">
          <mxGeometry x="750" y="146" width="120" height="80" as="geometry" />
        </mxCell>
        <mxCell id="AWHUf_0FlsuX0KZdPKvo-11" style="edgeStyle=none;rounded=0;orthogonalLoop=1;jettySize=auto;html=1;exitX=0.5;exitY=1;exitDx=0;exitDy=0;entryX=0.5;entryY=0;entryDx=0;entryDy=0;" edge="1" parent="AWHUf_0FlsuX0KZdPKvo-2" source="AWHUf_0FlsuX0KZdPKvo-8" target="AWHUf_0FlsuX0KZdPKvo-10">
          <mxGeometry relative="1" as="geometry" />
        </mxCell>
      </root>
    </mxGraphModel>
  </diagram>
</mxfile>
